<?xml version="1.0" standalone="no"?>
<!DOCTYPE svg PUBLIC "-//W3C//DTD SVG 20010904//EN"
 "http://www.w3.org/TR/2001/REC-SVG-20010904/DTD/svg10.dtd">
<svg version="1.0" xmlns="http://www.w3.org/2000/svg"
 width="700.000000pt" height="700.000000pt" viewBox="0 0 700.000000 700.000000"
 preserveAspectRatio="xMidYMid meet">
<metadata>
Created by potrace 1.14, written by Peter Selinger 2001-2017
</metadata>
<g transform="translate(0.000000,700.000000) scale(0.100000,-0.100000)"
fill="#000000" stroke="none">
<path d="M2940 6974 c-19 -2 -80 -9 -135 -15 -234 -24 -531 -99 -776 -194
-1406 -548 -2235 -2009 -1983 -3495 98 -580 350 -1111 742 -1563 85 -98 329
-337 344 -337 4 0 31 18 60 40 29 21 244 144 478 271 601 329 617 337 665 391
47 52 79 114 95 180 5 24 10 138 10 253 l0 211 -54 74 c-117 164 -227 382
-290 577 -20 62 -36 118 -36 124 0 6 -26 40 -59 74 -89 95 -91 106 -91 439 0
273 1 282 24 331 12 28 35 64 49 81 l26 30 3 420 4 419 27 90 c72 232 213 397
431 504 182 90 359 129 631 138 681 23 1102 -208 1226 -672 21 -76 22 -99 20
-481 l-3 -402 41 -53 c68 -89 73 -118 69 -431 -3 -254 -4 -276 -24 -319 -30
-65 -86 -123 -147 -153 -50 -26 -51 -27 -89 -127 -79 -210 -186 -408 -310
-574 l-68 -90 0 -206 c0 -114 4 -229 10 -257 13 -71 45 -135 98 -193 41 -46
80 -68 476 -266 237 -118 433 -217 436 -220 2 -2 -89 -97 -203 -211 l-207
-207 155 -155 155 -155 695 695 695 695 -58 60 -57 60 63 -60 62 -60 -697
-697 -698 -698 180 -180 180 -180 923 922 c982 981 972 970 972 1064 0 98 -18
124 -234 341 -141 141 -215 208 -247 222 -62 29 -143 28 -202 -3 -26 -13 -47
-22 -47 -20 0 2 13 70 30 152 47 233 62 390 62 642 1 503 -97 931 -313 1380
-393 812 -1087 1406 -1954 1669 -286 87 -522 122 -860 126 -143 2 -276 1 -295
-1z"/>
<path d="M4285 501 c-16 -10 -93 -83 -171 -162 -106 -108 -142 -152 -146 -175
-11 -81 41 -144 120 -144 l46 0 168 168 c161 161 168 169 168 207 0 101 -101
159 -185 106z"/>
</g>
</svg>
